<?xml version="1.0" encoding="UTF-8"?>
<svg xmlns="http://www.w3.org/2000/svg" xmlns:xlink="http://www.w3.org/1999/xlink" width="804px" height="782px" viewBox="0 0 804 782" version="1.1">
<defs>
<filter id="alpha" filterUnits="objectBoundingBox" x="0%" y="0%" width="100%" height="100%">
  <feColorMatrix type="matrix" in="SourceGraphic" values="0 0 0 0 1 0 0 0 0 1 0 0 0 0 1 0 0 0 1 0"/>
</filter>
<mask id="mask0">
  <g filter="url(#alpha)">
<rect x="0" y="0" width="804" height="782" style="fill:rgb(0%,0%,0%);fill-opacity:0.160784;stroke:none;"/>
  </g>
</mask>
<clipPath id="clip1">
  <rect x="0" y="0" width="804" height="782"/>
</clipPath>
<g id="surface5" clip-path="url(#clip1)">
<path style=" stroke:none;fill-rule:nonzero;fill:rgb(13.72549%,12.156863%,12.54902%);fill-opacity:1;" d="M 405.148438 397.277344 C 365.246094 397.273438 332.144531 355.164062 329.339844 300.851562 C 329.214844 303.265625 329.128906 305.695312 329.128906 308.152344 C 329.128906 365.441406 363.164062 411.882812 405.148438 411.882812 C 447.128906 411.882812 481.164062 365.441406 481.164062 308.152344 C 481.164062 305.695312 481.078125 303.265625 480.953125 300.851562 C 478.152344 355.164062 445.046875 397.273438 405.148438 397.277344 Z M 405.148438 397.277344 "/>
</g>
</defs>
<g id="surface1">
<path style=" stroke:none;fill-rule:nonzero;fill:rgb(80%,80%,80%);fill-opacity:1;" d="M 53.3125 782.304688 L 750.988281 782.304688 C 751.722656 782.304688 752.320312 781.488281 752.320312 780.484375 C 752.320312 779.480469 751.722656 778.664062 750.988281 778.664062 L 53.3125 778.664062 C 52.574219 778.664062 51.976562 779.480469 51.976562 780.484375 C 51.976562 781.488281 52.574219 782.304688 53.3125 782.304688 Z M 53.3125 782.304688 "/>
<path style=" stroke:none;fill-rule:nonzero;fill:rgb(94.117647%,94.117647%,94.117647%);fill-opacity:1;" d="M 187.355469 341.558594 C 146.550781 286.746094 129.320312 229.566406 138.828125 180.546875 C 151.03125 117.640625 205.246094 74.148438 287.574219 61.21875 L 287.878906 64.828125 C 206.699219 77.578125 153.308594 120.09375 141.402344 181.476562 C 132.144531 229.179688 149.128906 285.113281 189.222656 338.972656 Z M 187.355469 341.558594 "/>
<path style=" stroke:none;fill-rule:nonzero;fill:rgb(94.117647%,94.117647%,94.117647%);fill-opacity:1;" d="M 581.03125 536.125 C 530.109375 536.125 474.769531 525.800781 419.804688 505.941406 C 351.828125 481.386719 289.503906 444.320312 239.566406 398.753906 L 241.046875 395.734375 C 290.742188 441.082031 352.792969 477.976562 420.484375 502.429688 C 481.65625 524.53125 543.289062 534.773438 598.691406 532.070312 L 598.789062 535.699219 C 592.9375 535.984375 587.019531 536.128906 581.03125 536.125 Z M 581.03125 536.125 "/>
<path style=" stroke:none;fill-rule:nonzero;fill:rgb(94.117647%,94.117647%,94.117647%);fill-opacity:1;" d="M 697.859375 513.289062 L 697.007812 509.851562 C 742.550781 488.835938 771.039062 454.988281 779.386719 411.957031 C 790 357.253906 766.945312 293.777344 714.46875 233.214844 C 661.722656 172.34375 585.667969 121.839844 500.304688 91 L 500.984375 87.492188 C 586.722656 118.464844 663.148438 169.230469 716.183594 230.441406 C 769.492188 291.960938 792.847656 356.753906 781.960938 412.886719 C 773.371094 457.148438 744.289062 491.867188 697.859375 513.289062 Z M 697.859375 513.289062 "/>
<path style=" stroke:none;fill-rule:nonzero;fill:rgb(94.117647%,94.117647%,94.117647%);fill-opacity:1;" d="M 279.652344 537.644531 C 179.585938 477.085938 102.480469 398.515625 62.535156 316.410156 L 64.753906 314.402344 C 104.421875 395.9375 181.125 474.042969 280.730469 534.324219 Z M 279.652344 537.644531 "/>
<path style=" stroke:none;fill-rule:nonzero;fill:rgb(94.117647%,94.117647%,94.117647%);fill-opacity:1;" d="M 631.464844 642.558594 C 621.144531 642.558594 610.648438 642.246094 599.972656 641.617188 L 600.085938 637.988281 C 679.742188 642.695312 750.019531 629.6875 803.34375 600.363281 L 804.339844 603.734375 C 757.824219 629.308594 698.539062 642.558594 631.464844 642.558594 Z M 631.464844 642.558594 "/>
<path style=" stroke:none;fill-rule:nonzero;fill:rgb(94.117647%,94.117647%,94.117647%);fill-opacity:1;" d="M 573.40625 64.476562 C 556.867188 57.128906 539.855469 50.285156 522.84375 44.140625 C 424.949219 8.773438 328.71875 -3.78125 244.550781 7.835938 L 244.28125 4.222656 C 328.765625 -7.433594 425.324219 5.152344 523.527344 40.628906 C 540.585938 46.792969 557.644531 53.652344 574.230469 61.023438 Z M 573.40625 64.476562 "/>
<path style=" stroke:none;fill-rule:nonzero;fill:rgb(94.117647%,94.117647%,94.117647%);fill-opacity:1;" d="M 124.816406 347.007812 C 84.015625 292.195312 66.78125 235.011719 76.292969 185.992188 C 88.496094 123.089844 142.710938 79.597656 225.035156 66.667969 L 225.339844 70.273438 C 144.160156 83.023438 90.773438 125.539062 78.863281 186.921875 C 69.609375 234.628906 86.59375 290.5625 126.683594 344.421875 Z M 124.816406 347.007812 "/>
<path style=" stroke:none;fill-rule:nonzero;fill:rgb(94.117647%,94.117647%,94.117647%);fill-opacity:1;" d="M 518.496094 541.574219 C 467.570312 541.574219 412.234375 531.246094 357.265625 511.390625 C 289.292969 486.832031 226.96875 449.769531 177.03125 404.199219 L 178.507812 401.183594 C 228.207031 446.53125 290.253906 483.425781 357.945312 507.878906 C 419.121094 529.980469 480.75 540.21875 536.15625 537.515625 L 536.25 541.144531 C 530.398438 541.433594 524.480469 541.574219 518.496094 541.574219 Z M 518.496094 541.574219 "/>
<path style=" stroke:none;fill-rule:nonzero;fill:rgb(94.117647%,94.117647%,94.117647%);fill-opacity:1;" d="M 635.320312 518.738281 L 634.46875 515.296875 C 680.015625 494.285156 708.5 460.433594 716.847656 417.402344 C 727.460938 362.703125 704.40625 299.222656 651.929688 238.660156 C 599.1875 177.792969 523.128906 127.285156 437.765625 96.449219 L 438.449219 92.9375 C 524.183594 123.910156 600.613281 174.679688 653.648438 235.890625 C 706.953125 297.40625 730.3125 362.199219 719.421875 418.332031 C 710.835938 462.597656 681.753906 497.316406 635.320312 518.738281 Z M 635.320312 518.738281 "/>
<path style=" stroke:none;fill-rule:nonzero;fill:rgb(94.117647%,94.117647%,94.117647%);fill-opacity:1;" d="M 217.113281 543.089844 C 117.050781 482.53125 39.945312 403.964844 0 321.855469 L 2.214844 319.847656 C 41.886719 401.386719 118.585938 479.488281 218.191406 539.773438 Z M 217.113281 543.089844 "/>
<path style=" stroke:none;fill-rule:nonzero;fill:rgb(94.117647%,94.117647%,94.117647%);fill-opacity:1;" d="M 568.929688 648.007812 C 558.605469 648.007812 548.109375 647.691406 537.4375 647.0625 L 537.550781 643.433594 C 617.203125 648.140625 687.484375 635.132812 740.804688 605.8125 L 741.800781 609.179688 C 695.289062 634.753906 636 648.007812 568.929688 648.007812 Z M 568.929688 648.007812 "/>
<path style=" stroke:none;fill-rule:nonzero;fill:rgb(94.117647%,94.117647%,94.117647%);fill-opacity:1;" d="M 510.871094 69.921875 C 494.332031 62.574219 477.320312 55.734375 460.308594 49.585938 C 362.414062 14.222656 266.179688 1.664062 182.011719 13.28125 L 181.746094 9.667969 C 266.226562 -1.984375 362.789062 10.601562 460.988281 46.078125 C 478.050781 52.238281 495.109375 59.101562 511.695312 66.46875 Z M 510.871094 69.921875 "/>
<path style=" stroke:none;fill-rule:nonzero;fill:rgb(94.901961%,94.901961%,94.901961%);fill-opacity:1;" d="M 45.359375 249.742188 C 64.480469 220.484375 94.984375 202.652344 122.628906 213.328125 C 97.128906 237.957031 78.832031 274.097656 70.976562 315.363281 C 67.988281 331.292969 65.882812 349.433594 56.175781 359.175781 C 50.132812 365.234375 42.128906 366.683594 34.703125 365.300781 C 27.273438 363.921875 20.25 359.980469 13.320312 356.074219 L 11.453125 356.292969 C 16.816406 317.777344 26.234375 279 45.359375 249.742188 Z M 45.359375 249.742188 "/>
<path style=" stroke:none;fill-rule:nonzero;fill:rgb(100%,100%,100%);fill-opacity:1;" d="M 122.546875 214.140625 C 99.433594 221.777344 78.671875 239.15625 63.210938 263.8125 C 59.8125 269.039062 57.039062 274.964844 54.992188 281.371094 C 53.148438 287.699219 52.578125 294.582031 53.34375 301.3125 C 53.964844 307.605469 55.132812 313.945312 54.625 320.335938 C 54.023438 326.941406 51.382812 332.882812 47.371094 336.667969 C 42.515625 341.503906 36.679688 343.671875 30.914062 345.523438 C 24.515625 347.578125 17.84375 349.570312 12.628906 355.375 C 11.996094 356.078125 11.230469 354.699219 11.863281 353.996094 C 20.941406 343.898438 33.554688 345.195312 43.59375 337.863281 C 48.28125 334.441406 52.238281 329.070312 53.203125 321.703125 C 54.042969 315.257812 52.839844 308.71875 52.171875 302.355469 C 51.355469 295.804688 51.726562 289.082031 53.253906 282.773438 C 55.054688 276.246094 57.652344 270.183594 60.945312 264.847656 C 68.210938 252.675781 76.835938 242.136719 86.5 233.617188 C 97.492188 223.8125 109.632812 216.644531 122.398438 212.425781 C 123.1875 212.164062 123.332031 213.882812 122.546875 214.140625 Z M 122.546875 214.140625 "/>
<path style=" stroke:none;fill-rule:nonzero;fill:rgb(100%,100%,100%);fill-opacity:1;" d="M 67.847656 255.472656 C 62.3125 247.003906 62.089844 234.308594 67.324219 225.488281 C 67.839844 224.625 68.84375 225.675781 68.328125 226.539062 C 63.441406 234.746094 63.667969 246.582031 68.855469 254.433594 C 69.402344 255.257812 68.386719 256.296875 67.847656 255.472656 Z M 67.847656 255.472656 "/>
<path style=" stroke:none;fill-rule:nonzero;fill:rgb(100%,100%,100%);fill-opacity:1;" d="M 52.722656 298.179688 C 60.933594 298.921875 69.050781 295.414062 75.453125 288.355469 C 76.085938 287.65625 76.851562 289.035156 76.214844 289.734375 C 69.542969 297.0625 61.09375 300.691406 52.546875 299.890625 C 51.734375 299.8125 51.910156 298.101562 52.722656 298.179688 Z M 52.722656 298.179688 "/>
<path style=" stroke:none;fill-rule:nonzero;fill:rgb(100%,100%,100%);fill-opacity:1;" d="M 97.777344 226.070312 C 99.390625 229.890625 102.304688 232.351562 105.53125 232.613281 C 106.347656 232.675781 106.167969 234.386719 105.359375 234.324219 C 101.796875 234.011719 98.578125 231.3125 96.769531 227.113281 C 96.570312 226.726562 96.621094 226.199219 96.890625 225.902344 C 97.171875 225.617188 97.566406 225.691406 97.777344 226.070312 Z M 97.777344 226.070312 "/>
<path style=" stroke:none;fill-rule:nonzero;fill:rgb(94.901961%,94.901961%,94.901961%);fill-opacity:1;" d="M 161.871094 334.785156 C 161.363281 334.765625 160.851562 334.746094 160.335938 334.738281 C 153.484375 334.527344 146.632812 335.070312 139.84375 336.371094 C 139.320312 336.460938 138.789062 336.5625 138.265625 336.671875 C 121.9375 340.042969 106.210938 347.519531 91.886719 358.722656 C 86.1875 363.1875 80.746094 368.238281 75.609375 373.832031 C 68.515625 381.554688 61.277344 390.699219 52.972656 394.65625 C 52.109375 395.082031 51.226562 395.4375 50.332031 395.714844 L 11.796875 359.378906 C 11.738281 359.238281 11.675781 359.105469 11.617188 358.964844 L 10.03125 357.609375 C 10.28125 357.296875 10.542969 356.976562 10.792969 356.664062 C 10.941406 356.480469 11.09375 356.308594 11.238281 356.125 C 11.335938 356.003906 11.4375 355.886719 11.519531 355.769531 C 11.554688 355.730469 11.585938 355.691406 11.613281 355.664062 C 11.699219 355.546875 11.785156 355.453125 11.863281 355.347656 C 13.335938 353.566406 14.824219 351.792969 16.320312 350.035156 C 16.328125 350.023438 16.328125 350.023438 16.34375 350.019531 C 27.660156 336.453125 40.117188 324.765625 53.453125 315.203125 C 53.855469 314.925781 54.261719 314.636719 54.679688 314.375 C 60.699219 310.253906 66.957031 306.808594 73.386719 304.078125 C 76.914062 302.597656 80.492188 301.363281 84.109375 300.375 C 93.457031 297.851562 103.039062 297.351562 112.5 298.890625 C 131.363281 301.964844 149.296875 313.238281 160.988281 333.246094 C 161.289062 333.757812 161.578125 334.261719 161.871094 334.785156 Z M 161.871094 334.785156 "/>
<path style=" stroke:none;fill-rule:nonzero;fill:rgb(100%,100%,100%);fill-opacity:1;" d="M 161.449219 335.371094 C 139.625 322.480469 115.378906 319.300781 92.15625 326.28125 C 87.136719 327.664062 82.308594 330.117188 77.847656 333.550781 C 73.585938 337.085938 70.089844 342.117188 67.734375 348.121094 C 65.453125 353.65625 63.589844 359.675781 60.359375 364.359375 C 56.964844 369.140625 52.238281 371.714844 47.367188 371.441406 C 41.355469 371.316406 35.738281 368.25 30.316406 364.992188 C 24.300781 361.371094 18.09375 357.484375 11.371094 357.832031 C 10.554688 357.875 10.554688 356.148438 11.367188 356.105469 C 23.070312 355.5 32.570312 366.898438 43.824219 369.292969 C 49.074219 370.410156 54.605469 369.375 58.625 364.28125 C 62.136719 359.828125 64.0625 353.621094 66.339844 347.988281 C 68.574219 342.085938 71.839844 337.023438 75.839844 333.242188 C 80.15625 329.507812 84.90625 326.804688 89.890625 325.25 C 101.0625 321.5 112.597656 320.167969 124.074219 321.308594 C 137.175781 322.511719 150.035156 326.761719 162.085938 333.878906 C 162.832031 334.320312 162.1875 335.8125 161.449219 335.371094 Z M 161.449219 335.371094 "/>
<path style=" stroke:none;fill-rule:nonzero;fill:rgb(100%,100%,100%);fill-opacity:1;" d="M 99.535156 323.433594 C 98.855469 312.125 104.28125 301.804688 112.347656 299.0625 C 113.140625 298.796875 113.480469 300.460938 112.6875 300.726562 C 105.167969 303.265625 100.121094 312.902344 100.804688 323.433594 C 100.875 324.539062 99.605469 324.535156 99.535156 323.433594 Z M 99.535156 323.433594 "/>
<path style=" stroke:none;fill-rule:nonzero;fill:rgb(100%,100%,100%);fill-opacity:1;" d="M 68.621094 345.105469 C 74.847656 352.445312 82.875 356.316406 91.101562 355.9375 C 91.917969 355.898438 91.917969 357.628906 91.105469 357.667969 C 82.542969 358.035156 74.195312 353.988281 67.726562 346.328125 C 67.109375 345.597656 68.007812 344.378906 68.621094 345.105469 Z M 68.621094 345.105469 "/>
<path style=" stroke:none;fill-rule:nonzero;fill:rgb(100%,100%,100%);fill-opacity:1;" d="M 136.410156 324.546875 C 136.011719 328.925781 137.253906 333.28125 139.710938 336.144531 C 140.335938 336.863281 139.4375 338.082031 138.820312 337.367188 C 136.113281 334.191406 134.734375 329.390625 135.140625 324.550781 C 135.152344 324.078125 135.429688 323.699219 135.773438 323.683594 C 136.125 323.6875 136.40625 324.070312 136.410156 324.546875 Z M 136.410156 324.546875 "/>
<path style=" stroke:none;fill-rule:nonzero;fill:rgb(94.901961%,94.901961%,94.901961%);fill-opacity:1;" d="M 794.679688 489.589844 C 783.875 453.261719 759.535156 422.476562 730.871094 419.851562 C 748.824219 454.742188 757.15625 497.175781 754.386719 539.644531 C 753.277344 556.015625 750.792969 574.066406 757.539062 587.691406 C 761.734375 596.171875 768.917969 601.207031 776.253906 603.3125 C 783.589844 605.421875 791.175781 604.929688 798.664062 604.425781 L 800.367188 605.492188 C 804.804688 566.757812 805.484375 525.914062 794.679688 489.589844 Z M 794.679688 489.589844 "/>
<path style=" stroke:none;fill-rule:nonzero;fill:rgb(100%,100%,100%);fill-opacity:1;" d="M 730.75 420.65625 C 750.636719 438.449219 765.910156 464.339844 774.398438 494.652344 C 776.3125 501.132812 777.464844 507.984375 777.8125 514.957031 C 777.992188 521.761719 776.832031 528.507812 774.457031 534.496094 C 772.320312 540.140625 769.65625 545.574219 768.566406 551.828125 C 767.503906 558.324219 768.527344 565.128906 771.375 570.535156 C 774.753906 577.316406 779.71875 582.035156 784.691406 586.421875 C 790.214844 591.292969 796.003906 596.230469 799.488281 604.089844 C 799.910156 605.039062 800.96875 604.089844 800.546875 603.140625 C 794.484375 589.46875 782.285156 584.902344 774.636719 573.390625 C 771.066406 568.019531 768.660156 561.144531 769.566406 553.765625 C 770.363281 547.308594 773.105469 541.703125 775.300781 536.015625 C 777.683594 530.21875 778.992188 523.71875 779.109375 517.074219 C 779.019531 510.101562 778.0625 503.203125 776.277344 496.667969 C 772.433594 481.867188 766.90625 467.988281 759.902344 455.53125 C 751.964844 441.253906 742.292969 428.9375 731.3125 419.109375 C 730.632812 418.5 730.074219 420.054688 730.75 420.65625 Z M 730.75 420.65625 "/>
<path style=" stroke:none;fill-rule:nonzero;fill:rgb(100%,100%,100%);fill-opacity:1;" d="M 772.085938 484.671875 C 779.386719 479.230469 782.71875 467.378906 779.964844 456.671875 C 779.691406 455.625 778.488281 456.152344 778.761719 457.199219 C 781.339844 467.167969 778.214844 478.214844 771.394531 483.226562 C 770.675781 483.757812 771.375 485.199219 772.085938 484.671875 Z M 772.085938 484.671875 "/>
<path style=" stroke:none;fill-rule:nonzero;fill:rgb(100%,100%,100%);fill-opacity:1;" d="M 775.8125 531.828125 C 767.894531 528.761719 761.113281 521.738281 756.824219 512.152344 C 756.398438 511.203125 755.339844 512.152344 755.765625 513.101562 C 760.246094 523.0625 767.3125 530.355469 775.554688 533.519531 C 776.34375 533.820312 776.59375 532.128906 775.8125 531.828125 Z M 775.8125 531.828125 "/>
<path style=" stroke:none;fill-rule:nonzero;fill:rgb(100%,100%,100%);fill-opacity:1;" d="M 751.140625 443.25 C 748.679688 446.109375 745.328125 447.089844 742.222656 445.859375 C 741.441406 445.542969 741.1875 447.238281 741.96875 447.550781 C 745.398438 448.890625 749.09375 447.820312 751.835938 444.695312 C 752.117188 444.425781 752.195312 443.902344 752.015625 443.5 C 751.824219 443.101562 751.433594 442.992188 751.140625 443.25 Z M 751.140625 443.25 "/>
<path style=" stroke:none;fill-rule:nonzero;fill:rgb(94.901961%,94.901961%,94.901961%);fill-opacity:1;" d="M 663.996094 516.246094 C 664.480469 516.460938 664.964844 516.679688 665.453125 516.90625 C 671.960938 519.847656 678.28125 523.503906 684.351562 527.84375 C 684.824219 528.167969 685.300781 528.507812 685.765625 528.847656 C 700.3125 539.511719 713.28125 553.765625 724.015625 570.890625 C 728.28125 577.710938 732.164062 584.960938 735.625 592.582031 C 740.402344 603.109375 744.96875 615.042969 751.816406 622.582031 C 752.523438 623.378906 753.265625 624.113281 754.039062 624.785156 L 799.285156 608.242188 C 799.375 608.132812 799.464844 608.039062 799.554688 607.929688 L 801.382812 607.382812 C 801.226562 606.972656 801.054688 606.550781 800.898438 606.140625 C 800.804688 605.902344 800.703125 605.667969 800.613281 605.429688 C 800.550781 605.273438 800.484375 605.113281 800.433594 604.96875 C 800.414062 604.914062 800.390625 604.863281 800.371094 604.824219 C 800.320312 604.675781 800.261719 604.546875 800.214844 604.414062 C 799.265625 602.058594 798.300781 599.707031 797.324219 597.363281 C 797.320312 597.347656 797.320312 597.347656 797.308594 597.339844 C 789.992188 579.371094 781.136719 562.648438 770.933594 547.527344 C 770.621094 547.082031 770.3125 546.625 769.980469 546.183594 C 765.328125 539.542969 760.28125 533.429688 754.898438 527.90625 C 751.941406 524.898438 748.875 522.09375 745.710938 519.503906 C 737.527344 512.839844 728.628906 507.972656 719.335938 505.085938 C 700.8125 499.328125 681.144531 501.71875 665.207031 515.199219 C 664.800781 515.546875 664.402344 515.886719 663.996094 516.246094 Z M 663.996094 516.246094 "/>
<path style=" stroke:none;fill-rule:nonzero;fill:rgb(100%,100%,100%);fill-opacity:1;" d="M 664.25 516.992188 C 687.980469 514.859375 711.597656 522.984375 731.75 540.210938 C 736.136719 543.816406 740.082031 548.339844 743.433594 553.621094 C 746.582031 558.90625 748.632812 565.246094 749.375 571.980469 C 750.160156 578.238281 750.433594 584.765625 752.316406 590.65625 C 754.335938 596.714844 758.15625 601.308594 762.8125 603.285156 C 768.503906 605.925781 774.550781 605.613281 780.457031 605.03125 C 787.015625 604.382812 793.816406 603.566406 800.066406 606.980469 C 800.824219 607.394531 801.25 605.765625 800.496094 605.351562 C 789.621094 599.414062 777.867188 605.792969 766.679688 602.886719 C 761.457031 601.53125 756.503906 598.019531 753.972656 591.378906 C 751.761719 585.574219 751.476562 578.84375 750.722656 572.496094 C 750.066406 565.914062 748.242188 559.648438 745.402344 554.25 C 742.257812 548.753906 738.449219 544.027344 734.140625 540.277344 C 724.542969 531.621094 714.003906 525.078125 702.914062 520.886719 C 690.277344 516.011719 677.125 514.117188 664.019531 515.292969 C 663.207031 515.367188 663.445312 517.066406 664.25 516.992188 Z M 664.25 516.992188 "/>
<path style=" stroke:none;fill-rule:nonzero;fill:rgb(100%,100%,100%);fill-opacity:1;" d="M 725.5 534.144531 C 728.929688 523.804688 726.359375 511.601562 719.4375 505.3125 C 718.757812 504.703125 718.027344 506.113281 718.707031 506.726562 C 725.167969 512.566406 727.542969 523.957031 724.308594 533.5625 C 723.96875 534.574219 725.164062 535.148438 725.503906 534.144531 Z M 725.5 534.144531 "/>
<path style=" stroke:none;fill-rule:nonzero;fill:rgb(100%,100%,100%);fill-opacity:1;" d="M 749.28125 568.734375 C 741.609375 572.792969 733.09375 572.753906 725.441406 568.625 C 724.679688 568.214844 724.253906 569.84375 725.011719 570.253906 C 732.984375 574.527344 741.84375 574.542969 749.824219 570.296875 C 750.585938 569.890625 750.039062 568.332031 749.28125 568.734375 Z M 749.28125 568.734375 "/>
<path style=" stroke:none;fill-rule:nonzero;fill:rgb(100%,100%,100%);fill-opacity:1;" d="M 690.5 518.28125 C 689.796875 522.585938 687.554688 526.121094 684.53125 527.6875 C 683.769531 528.078125 684.316406 529.640625 685.074219 529.25 C 688.40625 527.5 690.882812 523.609375 691.691406 518.863281 C 691.796875 518.417969 691.632812 517.933594 691.308594 517.761719 C 690.980469 517.601562 690.621094 517.835938 690.5 518.28125 Z M 690.5 518.28125 "/>
<path style=" stroke:none;fill-rule:nonzero;fill:rgb(99.215686%,39.607843%,51.764706%);fill-opacity:1;" d="M 236.472656 195.851562 C 236.472656 203.875 231.707031 210.375 225.828125 210.375 C 219.953125 210.375 215.183594 203.875 215.183594 195.851562 C 215.183594 187.828125 219.953125 181.324219 225.828125 181.324219 C 231.707031 181.324219 236.472656 187.828125 236.472656 195.851562 Z M 236.472656 195.851562 "/>
<path style=" stroke:none;fill-rule:nonzero;fill:rgb(90.196078%,90.196078%,90.196078%);fill-opacity:1;" d="M 624.472656 337.023438 C 630.277344 338.304688 634.21875 345.765625 633.277344 353.6875 C 632.332031 361.605469 626.867188 366.984375 621.0625 365.699219 C 615.261719 364.414062 611.320312 356.953125 612.261719 349.03125 C 613.203125 341.113281 618.671875 335.738281 624.472656 337.023438 Z M 624.472656 337.023438 "/>
<path style=" stroke:none;fill-rule:nonzero;fill:rgb(90.196078%,90.196078%,90.196078%);fill-opacity:1;" d="M 236.042969 32.386719 C 236.042969 40.410156 231.277344 46.914062 225.398438 46.914062 C 219.519531 46.914062 214.753906 40.410156 214.753906 32.386719 C 214.753906 24.367188 219.519531 17.863281 225.398438 17.863281 C 231.277344 17.863281 236.042969 24.367188 236.042969 32.386719 Z M 236.042969 32.386719 "/>
<path style=" stroke:none;fill-rule:nonzero;fill:rgb(24.705882%,23.921569%,33.72549%);fill-opacity:1;" d="M 543.011719 203.316406 L 539.972656 203.316406 L 539.972656 89.738281 C 539.972656 53.429688 518.40625 24 491.800781 24 L 315.457031 24 C 288.851562 24 267.285156 53.429688 267.285156 89.738281 L 267.285156 712.84375 C 267.285156 749.148438 288.851562 778.582031 315.457031 778.582031 L 491.800781 778.582031 C 518.40625 778.582031 539.972656 749.148438 539.972656 712.84375 L 539.972656 284.164062 L 543.011719 284.164062 Z M 543.011719 203.316406 "/>
<path style=" stroke:none;fill-rule:nonzero;fill:rgb(94.901961%,94.901961%,94.901961%);fill-opacity:1;" d="M 529.714844 90.191406 L 529.714844 712.386719 C 529.71875 739.496094 513.617188 761.472656 493.753906 761.476562 L 316.550781 761.476562 C 296.683594 761.476562 280.578125 739.503906 280.578125 712.394531 L 280.578125 90.191406 C 280.578125 63.082031 296.679688 41.105469 316.546875 41.105469 L 338.054688 41.105469 C 335.902344 48.296875 336.519531 56.476562 339.691406 62.921875 C 342.867188 69.371094 348.183594 73.238281 353.875 73.238281 L 454.902344 73.238281 C 460.59375 73.230469 465.910156 69.363281 469.082031 62.917969 C 472.257812 56.472656 472.871094 48.296875 470.726562 41.105469 L 493.742188 41.105469 C 513.609375 41.105469 529.714844 63.078125 529.714844 90.1875 Z M 529.714844 90.191406 "/>
<path style=" stroke:none;fill-rule:nonzero;fill:rgb(100%,100%,100%);fill-opacity:1;" d="M 294.003906 100.5 L 348.972656 100.5 L 348.972656 103.855469 L 294.003906 103.855469 Z M 294.003906 100.5 "/>
<path style=" stroke:none;fill-rule:nonzero;fill:rgb(100%,100%,100%);fill-opacity:1;" d="M 377.660156 100.5 L 432.632812 100.5 L 432.632812 103.855469 L 377.660156 103.855469 Z M 377.660156 100.5 "/>
<path style=" stroke:none;fill-rule:nonzero;fill:rgb(80%,80%,80%);fill-opacity:1;" d="M 491.324219 502.527344 L 312.136719 502.527344 C 309.597656 502.527344 307.539062 499.71875 307.539062 496.253906 C 307.539062 492.789062 309.597656 489.976562 312.136719 489.976562 L 491.324219 489.976562 C 493.863281 489.976562 495.921875 492.789062 495.921875 496.253906 C 495.921875 499.71875 493.863281 502.527344 491.324219 502.527344 Z M 491.324219 502.527344 "/>
<path style=" stroke:none;fill-rule:nonzero;fill:rgb(80%,80%,80%);fill-opacity:1;" d="M 491.324219 546.175781 L 312.136719 546.175781 C 309.597656 546.175781 307.539062 543.367188 307.539062 539.902344 C 307.539062 536.4375 309.597656 533.628906 312.136719 533.628906 L 491.324219 533.628906 C 493.863281 533.628906 495.921875 536.4375 495.921875 539.902344 C 495.921875 543.367188 493.863281 546.175781 491.324219 546.175781 Z M 491.324219 546.175781 "/>
<path style=" stroke:none;fill-rule:nonzero;fill:rgb(80%,80%,80%);fill-opacity:1;" d="M 491.324219 589.824219 L 312.136719 589.824219 C 309.597656 589.824219 307.539062 587.015625 307.539062 583.550781 C 307.539062 580.085938 309.597656 577.277344 312.136719 577.277344 L 491.324219 577.277344 C 493.863281 577.277344 495.921875 580.085938 495.921875 583.550781 C 495.921875 587.015625 493.863281 589.824219 491.324219 589.824219 Z M 491.324219 589.824219 "/>
<path style=" stroke:none;fill-rule:nonzero;fill:rgb(100%,100%,100%);fill-opacity:1;" d="M 461.320312 100.5 L 516.289062 100.5 L 516.289062 103.855469 L 461.320312 103.855469 Z M 461.320312 100.5 "/>
<path style=" stroke:none;fill-rule:nonzero;fill:rgb(100%,100%,100%);fill-opacity:1;" d="M 294.003906 703.183594 L 348.972656 703.183594 L 348.972656 706.542969 L 294.003906 706.542969 Z M 294.003906 703.183594 "/>
<path style=" stroke:none;fill-rule:nonzero;fill:rgb(100%,100%,100%);fill-opacity:1;" d="M 377.660156 703.183594 L 432.632812 703.183594 L 432.632812 706.542969 L 377.660156 706.542969 Z M 377.660156 703.183594 "/>
<path style=" stroke:none;fill-rule:nonzero;fill:rgb(100%,100%,100%);fill-opacity:1;" d="M 461.320312 703.183594 L 516.289062 703.183594 L 516.289062 706.542969 L 461.320312 706.542969 Z M 461.320312 703.183594 "/>
<path style=" stroke:none;fill-rule:nonzero;fill:rgb(81.960784%,82.745098%,83.137255%);fill-opacity:1;" d="M 488.46875 302.878906 C 488.46875 365.675781 451.164062 416.582031 405.148438 416.582031 C 359.128906 416.582031 321.824219 365.675781 321.824219 302.878906 C 321.824219 240.082031 359.128906 189.175781 405.148438 189.175781 C 451.164062 189.175781 488.46875 240.082031 488.46875 302.878906 Z M 488.46875 302.878906 "/>
<path style=" stroke:none;fill-rule:nonzero;fill:rgb(42.352941%,38.823529%,100%);fill-opacity:1;" d="M 481.164062 307.917969 C 481.164062 365.207031 447.128906 411.648438 405.148438 411.648438 C 363.164062 411.648438 329.128906 365.207031 329.128906 307.917969 C 329.128906 250.628906 363.164062 204.1875 405.148438 204.1875 C 447.128906 204.1875 481.164062 250.628906 481.164062 307.917969 Z M 481.164062 307.917969 "/>
<path style=" stroke:none;fill-rule:nonzero;fill:rgb(100%,100%,100%);fill-opacity:1;" d="M 398.511719 348.574219 C 398.347656 348.574219 398.179688 348.570312 398.015625 348.558594 C 395.0625 348.363281 392.324219 346.417969 390.511719 343.234375 L 378.53125 322.21875 C 375.097656 316.1875 375.894531 307.507812 380.304688 302.8125 L 380.734375 302.359375 C 385.15625 297.675781 391.515625 298.761719 394.957031 304.777344 C 396.046875 306.691406 397.691406 307.855469 399.464844 307.972656 C 401.238281 308.117188 402.964844 307.171875 404.175781 305.394531 L 428.503906 270.355469 C 432.355469 264.820312 438.761719 264.582031 442.828125 269.824219 L 443.222656 270.335938 C 447.28125 275.589844 447.453125 284.335938 443.613281 289.882812 L 405.863281 344.257812 C 403.953125 347.015625 401.292969 348.574219 398.511719 348.574219 Z M 398.511719 348.574219 "/>
<path style=" stroke:none;fill-rule:nonzero;fill:rgb(24.705882%,23.921569%,33.72549%);fill-opacity:1;" d="M 262.171875 143.75 L 272.015625 143.75 L 272.015625 215.9375 L 262.171875 215.9375 Z M 262.171875 143.75 "/>
<path style=" stroke:none;fill-rule:nonzero;fill:rgb(24.705882%,23.921569%,33.72549%);fill-opacity:1;" d="M 262.171875 224.332031 L 272.015625 224.332031 L 272.015625 266.300781 L 262.171875 266.300781 Z M 262.171875 224.332031 "/>
<path style=" stroke:none;fill-rule:nonzero;fill:rgb(24.705882%,23.921569%,33.72549%);fill-opacity:1;" d="M 262.171875 274.695312 L 272.015625 274.695312 L 272.015625 316.664062 L 262.171875 316.664062 Z M 262.171875 274.695312 "/>
<path style=" stroke:none;fill-rule:nonzero;fill:rgb(100%,100%,100%);fill-opacity:1;" d="M 361.824219 51.417969 C 361.824219 55.125 359.621094 58.132812 356.902344 58.132812 C 354.183594 58.132812 351.980469 55.125 351.980469 51.417969 C 351.980469 47.707031 354.183594 44.699219 356.902344 44.699219 C 359.621094 44.699219 361.824219 47.707031 361.824219 51.417969 Z M 361.824219 51.417969 "/>
<use xlink:href="#surface5" mask="url(#mask0)"/>
<path style=" stroke:none;fill-rule:nonzero;fill:rgb(100%,72.156863%,72.156863%);fill-opacity:1;" d="M 512.316406 391.621094 L 572.597656 394.980469 L 579.980469 339.578125 L 528.308594 317.753906 Z M 512.316406 391.621094 "/>
<path style=" stroke:none;fill-rule:nonzero;fill:rgb(100%,72.156863%,72.156863%);fill-opacity:1;" d="M 535.101562 271.628906 L 535.683594 245.457031 L 506.46875 235.460938 L 453.867188 214.519531 C 452.441406 208.621094 448.496094 204.535156 443.949219 204.242188 C 439.402344 203.953125 435.195312 207.523438 433.375 213.214844 C 431.554688 218.910156 432.496094 225.546875 435.742188 229.898438 C 438.988281 234.253906 443.867188 235.421875 448.007812 232.839844 L 499.144531 261.523438 Z M 535.101562 271.628906 "/>
<path style=" stroke:none;fill-rule:nonzero;fill:rgb(42.352941%,38.823529%,100%);fill-opacity:1;" d="M 516.273438 271.445312 L 532.710938 239.457031 L 533.121094 239.53125 C 533.378906 239.578125 559.152344 244.285156 576.050781 251.152344 C 579.894531 252.539062 583.09375 256.171875 584.796875 261.074219 C 587.261719 267.992188 586.488281 276.25 582.824219 282.097656 C 579.097656 288.417969 573.007812 291.175781 567.25 289.160156 Z M 516.273438 271.445312 "/>
<path style=" stroke:none;fill-rule:nonzero;fill:rgb(100%,72.156863%,72.156863%);fill-opacity:1;" d="M 526.683594 756.410156 L 509.96875 756.40625 L 502.011719 668.414062 L 526.6875 668.414062 Z M 526.683594 756.410156 "/>
<path style=" stroke:none;fill-rule:nonzero;fill:rgb(100%,72.156863%,72.156863%);fill-opacity:1;" d="M 656.855469 746.53125 L 640.328125 749.941406 L 622.824219 664.558594 L 644.492188 659.527344 Z M 656.855469 746.53125 "/>
<path style=" stroke:none;fill-rule:nonzero;fill:rgb(18.431373%,18.039216%,25.490196%);fill-opacity:1;" d="M 575.058594 378.191406 L 517.238281 364.761719 L 515.179688 370.542969 C 504.113281 401.710938 497.582031 435.503906 495.941406 470.0625 C 494.542969 499.238281 493.722656 530.046875 493.695312 562.347656 C 493.652344 612.390625 495.523438 658.828125 498.484375 701.078125 L 530.21875 700.808594 C 529.300781 655.949219 530.550781 611.054688 533.953125 566.417969 C 536.382812 534.589844 539.761719 504.855469 543.664062 477.421875 C 550.910156 517.695312 561.132812 556.863281 574.179688 594.320312 C 585.269531 626.320312 608.082031 663.316406 619.171875 695.320312 C 630.535156 693.457031 641.898438 691.597656 653.261719 689.734375 C 644.308594 657.417969 628.332031 610.226562 619.375 577.90625 C 606.570312 531.699219 600.789062 500.367188 587.984375 454.160156 C 588.714844 445.476562 588.855469 436.714844 588.410156 427.992188 C 587.8125 413.457031 585.597656 396.011719 579.121094 384.378906 Z M 575.058594 378.191406 "/>
<path style=" stroke:none;fill-rule:nonzero;fill:rgb(42.352941%,38.823529%,100%);fill-opacity:1;" d="M 583.992188 354.105469 C 586.878906 361.46875 580.023438 376.726562 575.058594 378.191406 L 517.878906 352.96875 L 546.671875 239.121094 L 561.15625 242.714844 L 584.324219 248.042969 L 592.539062 258.234375 C 596.769531 263.484375 598.332031 271.640625 596.523438 279.042969 Z M 583.992188 354.105469 "/>
<path style=" stroke:none;fill-rule:nonzero;fill:rgb(100%,72.156863%,72.156863%);fill-opacity:1;" d="M 544.628906 310.105469 L 528.453125 296.019531 L 507.203125 325.144531 L 467.085938 376.074219 C 462.640625 374.726562 458.046875 377.257812 455.539062 382.4375 C 453.027344 387.617188 453.117188 394.378906 455.769531 399.425781 C 458.421875 404.476562 463.078125 406.773438 467.484375 405.195312 C 471.886719 403.621094 475.121094 398.5 475.613281 392.324219 L 519.855469 347.078125 Z M 544.628906 310.105469 "/>
<path style=" stroke:none;fill-rule:nonzero;fill:rgb(42.352941%,38.823529%,100%);fill-opacity:1;" d="M 534.875 332.078125 L 523.15625 296.433594 L 523.410156 295.992188 C 523.574219 295.714844 539.734375 267.914062 552.707031 251.625 C 555.550781 247.832031 559.476562 245.941406 563.433594 246.453125 C 569.050781 247.105469 573.851562 252.242188 575.65625 259.527344 C 577.726562 267.132812 576.34375 275.683594 572.128906 281.398438 Z M 534.875 332.078125 "/>
<path style=" stroke:none;fill-rule:nonzero;fill:rgb(100%,72.156863%,72.156863%);fill-opacity:1;" d="M 596.753906 196.8125 C 596.753906 215.976562 585.367188 231.515625 571.324219 231.515625 C 557.277344 231.515625 545.894531 215.976562 545.894531 196.8125 C 545.894531 177.648438 557.277344 162.109375 571.324219 162.109375 C 585.367188 162.109375 596.753906 177.648438 596.753906 196.8125 Z M 596.753906 196.8125 "/>
<path style=" stroke:none;fill-rule:nonzero;fill:rgb(18.431373%,18.039216%,25.490196%);fill-opacity:1;" d="M 591.859375 247.097656 L 591.761719 247.0625 L 554.808594 234.449219 C 552.210938 233.5625 550.074219 231.050781 549.050781 227.675781 C 548.027344 224.300781 548.238281 220.464844 549.617188 217.332031 L 550.835938 214.5625 C 553.257812 209.0625 553.472656 202.261719 551.402344 196.5 C 549.652344 191.871094 546.640625 188.359375 543.015625 186.726562 L 542.894531 186.644531 L 542.117188 185.984375 C 540.574219 184.992188 539.410156 183.15625 538.910156 180.929688 C 538.394531 178.625 538.617188 176.125 539.523438 174.054688 C 542.785156 166.609375 547.667969 160.734375 553.492188 157.253906 C 560.847656 152.929688 569.132812 152.589844 576.667969 156.300781 C 577.6875 155.023438 579.109375 154.53125 580.453125 154.988281 C 599.589844 161.316406 601.167969 178.84375 597.386719 206.984375 L 601.859375 231.613281 C 602.5 235.132812 601.972656 238.859375 600.421875 241.800781 C 598.867188 244.746094 596.441406 246.605469 593.792969 246.890625 Z M 576.464844 156.578125 L 576.460938 156.582031 Z M 576.925781 156.425781 L 576.929688 156.425781 Z M 576.925781 156.425781 "/>
<path style=" stroke:none;fill-rule:nonzero;fill:rgb(18.431373%,18.039216%,25.490196%);fill-opacity:1;" d="M 530.757812 779.21875 L 521.21875 779.21875 L 519.515625 766.925781 L 515.152344 779.21875 L 489.847656 779.21875 C 487.355469 779.21875 485.15625 777.011719 484.414062 773.765625 C 483.675781 770.523438 484.566406 767 486.613281 765.070312 L 506.824219 746.023438 L 506.824219 733.597656 L 528.078125 735.328125 Z M 530.757812 779.21875 "/>
<path style=" stroke:none;fill-rule:nonzero;fill:rgb(18.431373%,18.039216%,25.490196%);fill-opacity:1;" d="M 659.519531 779.21875 L 649.976562 779.21875 L 648.273438 766.925781 L 643.910156 779.21875 L 618.605469 779.21875 C 616.117188 779.21875 613.914062 777.011719 613.175781 773.765625 C 612.433594 770.523438 613.324219 767 615.375 765.070312 L 635.582031 746.023438 L 635.582031 733.597656 L 656.839844 735.328125 Z M 659.519531 779.21875 "/>
</g>
</svg>
